<?xml version="1.0" encoding="utf-8"?>
<!-- Generator: Adobe Illustrator 21.0.0, SVG Export Plug-In . SVG Version: 6.00 Build 0)  -->
<svg version="1.1" id="Calque_1" xmlns="http://www.w3.org/2000/svg" xmlns:xlink="http://www.w3.org/1999/xlink" x="0px" y="0px"
	 viewBox="0 0 160 84" style="enable-background:new 0 0 160 84;" xml:space="preserve">
<style type="text/css">
	.st0{fill:url(#SVGID_1_);}
	.st1{fill:#FFFFFF;}
	.st2{fill:#060C26;}
</style>
<g>
	<g>
		<g>
			
				<linearGradient id="SVGID_1_" gradientUnits="userSpaceOnUse" x1="38" y1="42.2623" x2="89.5093" y2="42.2623" gradientTransform="matrix(0 1 -1 0 122 -38)">
				<stop  offset="0" style="stop-color:#08AEEA"/>
				<stop  offset="3.679174e-02" style="stop-color:#0AB1E6"/>
				<stop  offset="0.4648" style="stop-color:#1BD6BC"/>
				<stop  offset="0.8004" style="stop-color:#26EDA2"/>
				<stop  offset="1" style="stop-color:#2AF598"/>
			</linearGradient>
			<ellipse class="st0" cx="79.7" cy="25.8" rx="25.8" ry="25.8"/>
		</g>
		<path class="st1" d="M64.3,33.1c-0.1,0-0.3,0-0.4-0.1c-0.4-0.2-0.5-0.7-0.3-1.1c1-1.7,1.7-2.9,2.2-3.6c0.8-1.1,1.6-2,2.3-2.8
			c0.8-0.8,1.6-1.3,2.4-1.6c0.7-0.3,2.3-0.3,2.6-0.3c0.8,0.1,1.6,0.5,2.5,1c0.5,0.3,1,0.7,1.5,1.1c0.3,0.2,0.5,0.4,0.8,0.6
			c0.5,0.4,1.2,0.8,2,1.2c0.6,0.3,1.3,0.5,2,0.6c0.4,0.1,1.8,0.1,2,0.1c0.6-0.1,1.3-0.2,2-0.4c0.7-0.2,1.4-0.6,2.1-1
			c0.7-0.4,1.4-0.9,2.1-1.5c0.8-0.6,1.5-1.4,2.1-2.1c1.5-1.8,2-3.1,2-3.8c0-0.4,0.4-0.8,0.8-0.8c0,0,0,0,0,0c0.4,0,0.8,0.4,0.8,0.8
			c0,1.2-0.9,3-2.4,4.8c-0.7,0.8-1.5,1.6-2.3,2.3c-0.7,0.6-1.5,1.2-2.3,1.6c-0.8,0.5-1.6,0.8-2.4,1.1c-0.8,0.3-1.6,0.5-2.4,0.5
			c-0.3,0-1.9,0-2.4-0.1c-0.8-0.1-1.6-0.3-2.4-0.7c-1-0.4-1.8-0.9-2.3-1.4c-0.3-0.2-0.6-0.4-0.8-0.6c-0.5-0.4-0.9-0.7-1.4-1
			c-0.7-0.4-1.3-0.7-1.9-0.8c-0.3,0-1.5,0-1.8,0.2c-0.6,0.3-1.3,0.7-1.9,1.3c-0.7,0.6-1.4,1.5-2.1,2.5C66.7,29.9,66,31,65,32.7
			C64.9,33,64.6,33.1,64.3,33.1z M73,25.1C73,25.1,73,25.1,73,25.1C73,25.1,73,25.1,73,25.1z"/>
	</g>
	<g>
		<path class="st2" d="M7.8,79.6c-4.4,0-7.8-3-7.8-8.4c0-5.4,3.4-8.4,7.8-8.4c4.4,0,7.8,3,7.8,8.4S12.1,79.6,7.8,79.6z M7.8,66.4
			c-2.3,0-3.8,1.7-3.8,4.9c0,3.2,1.4,4.9,3.8,4.9c2.4,0,3.8-1.7,3.8-4.9C11.5,68.1,10.1,66.4,7.8,66.4z"/>
		<path class="st2" d="M17.8,67.2h3.8v2.1h0.1c0.5-1.1,1.5-2.2,3.5-2.2c2.6,0,4.9,2,4.9,6.3c0,4.2-2.2,6.3-4.9,6.3
			c-1.8,0-2.9-1-3.4-2.2h-0.1V84h-3.9V67.2z M23.9,76.6c1.4,0,2.2-1.3,2.2-3.2c0-2-0.8-3.2-2.2-3.2c-1.4,0-2.2,1.2-2.2,3.2
			C21.6,75.3,22.5,76.6,23.9,76.6z"/>
		<path class="st2" d="M31.7,73.4c0-3.8,2.4-6.3,6.1-6.3c3.5,0,5.9,2.2,5.9,6.2v1h-8.1v0.1c0,1.5,0.9,2.5,2.4,2.5
			c1,0,1.8-0.4,2.1-1.2l3.6,0.1c-0.4,2.4-2.6,3.9-5.8,3.9C34,79.7,31.7,77.3,31.7,73.4z M40,72c0-1.2-0.9-2.1-2.2-2.1
			c-1.3,0-2.2,0.9-2.3,2.1H40z"/>
		<path class="st2" d="M49.5,79.4h-3.9V67.2h3.7v2.2h0.1c0.5-1.5,1.9-2.4,3.7-2.4c2.6,0,4.2,1.8,4.2,4.6v7.8h-3.9v-7
			c0-1.3-0.7-2.2-2-2.2c-1.2,0-2,0.8-2.1,2.2V79.4z"/>
		<path class="st2" d="M59.8,63.2h11.1v3.2h-7.2v3.3h6.5v3.2h-6.5v6.5h-3.9V63.2z"/>
		<path class="st2" d="M71.5,73.4c0-3.8,2.3-6.3,6.2-6.3c3.8,0,6.2,2.5,6.2,6.3c0,3.8-2.3,6.3-6.2,6.3
			C73.9,79.7,71.5,77.1,71.5,73.4z M79.9,73.3c0-2-0.8-3.4-2.2-3.4c-1.4,0-2.2,1.4-2.2,3.4c0,2,0.8,3.4,2.2,3.4
			C79.1,76.7,79.9,75.4,79.9,73.3z"/>
		<path class="st2" d="M85.4,73.4c0-3.8,2.3-6.3,6.2-6.3c3.8,0,6.2,2.5,6.2,6.3c0,3.8-2.3,6.3-6.2,6.3
			C87.7,79.7,85.4,77.1,85.4,73.4z M93.8,73.3c0-2-0.8-3.4-2.2-3.4c-1.4,0-2.2,1.4-2.2,3.4c0,2,0.8,3.4,2.2,3.4
			C93,76.7,93.8,75.4,93.8,73.3z"/>
		<path class="st2" d="M106.6,70.1h-2.2v5.5c0,0.7,0.4,1,1,1c0.3,0,0.7-0.1,0.9-0.1l0.6,2.8c-0.4,0.1-1,0.3-2,0.3
			c-2.7,0.1-4.3-1.1-4.3-3.6v-5.9h-1.6v-2.9h1.6v-2.9h3.9v2.9h2.2V70.1z"/>
		<path class="st2" d="M108.6,67.2h3.8v2.1h0.1c0.5-1.1,1.5-2.2,3.5-2.2c2.6,0,4.9,2,4.9,6.3c0,4.2-2.2,6.3-4.9,6.3
			c-1.8,0-2.9-1-3.4-2.2h-0.1V84h-3.9V67.2z M114.7,76.6c1.4,0,2.2-1.3,2.2-3.2c0-2-0.8-3.2-2.2-3.2c-1.4,0-2.2,1.2-2.2,3.2
			C112.4,75.3,113.2,76.6,114.7,76.6z"/>
		<path class="st2" d="M122.9,67.2h3.8v2.2h0.1c0.4-1.6,1.5-2.4,2.8-2.4c0.4,0,0.8,0.1,1.1,0.1v3.4c-0.4-0.1-1.1-0.2-1.5-0.2
			c-1.4,0-2.4,1-2.4,2.4v6.6h-3.9V67.2z"/>
		<path class="st2" d="M132.3,64c0-1,0.9-1.8,2-1.8c1.1,0,2,0.8,2,1.8c0,1-0.9,1.9-2,1.9C133.2,65.8,132.3,65,132.3,64z M132.3,67.2
			h3.9v12.2h-3.9V67.2z"/>
		<path class="st2" d="M142.6,79.4h-3.9V67.2h3.7v2.2h0.1c0.5-1.5,1.9-2.4,3.7-2.4c2.6,0,4.2,1.8,4.2,4.6v7.8h-3.9v-7
			c0-1.3-0.7-2.2-2-2.2c-1.2,0-2,0.8-2.1,2.2V79.4z"/>
		<path class="st2" d="M159.8,70.1h-2.2v5.5c0,0.7,0.4,1,1,1c0.3,0,0.7-0.1,0.9-0.1l0.6,2.8c-0.4,0.1-1,0.3-2,0.3
			c-2.7,0.1-4.3-1.1-4.3-3.6v-5.9h-1.6v-2.9h1.6v-2.9h3.9v2.9h2.2V70.1z"/>
	</g>
</g>
</svg>
