<?xml version="1.0" encoding="utf-8"?>
<!-- Generator: Adobe Illustrator 21.0.0, SVG Export Plug-In . SVG Version: 6.00 Build 0)  -->
<svg version="1.1" id="Calque_1" xmlns="http://www.w3.org/2000/svg" xmlns:xlink="http://www.w3.org/1999/xlink" x="0px" y="0px"
	 viewBox="0 0 300 300" style="enable-background:new 0 0 300 300;" xml:space="preserve">
<style type="text/css">
	.st0{fill:url(#SVGID_1_);}
	.st1{fill:#FFFFFF;}
</style>
<g>
	<g>
		
			<linearGradient id="SVGID_1_" gradientUnits="userSpaceOnUse" x1="38" y1="1028" x2="337.4727" y2="1028" gradientTransform="matrix(0 1 1 0 -878 -38)">
			<stop  offset="0" style="stop-color:#08AEEA"/>
			<stop  offset="3.679174e-02" style="stop-color:#0AB1E6"/>
			<stop  offset="0.4648" style="stop-color:#1BD6BC"/>
			<stop  offset="0.8004" style="stop-color:#26EDA2"/>
			<stop  offset="1" style="stop-color:#2AF598"/>
		</linearGradient>
		<ellipse class="st0" cx="150" cy="150" rx="150" ry="150"/>
	</g>
	<path class="st1" d="M60.5,192.4c-0.6,0-1.7,0-2.3-0.6c-2.3-1.2-2.9-4.1-1.7-6.4c5.8-9.9,9.9-16.9,12.8-20.9
		c4.7-6.4,9.3-11.6,13.4-16.3c4.7-4.7,9.3-7.6,14-9.3c4.1-1.7,13.4-1.7,15.1-1.7c4.7,0.6,9.3,2.9,14.5,5.8c2.9,1.7,5.8,4.1,8.7,6.4
		c1.7,1.2,2.9,2.3,4.7,3.5c2.9,2.3,7,4.7,11.6,7c3.5,1.7,7.6,2.9,11.6,3.5c2.3,0.6,10.5,0.6,11.6,0.6c3.5-0.6,7.6-1.2,11.6-2.3
		c4.1-1.2,8.1-3.5,12.2-5.8s8.1-5.2,12.2-8.7c4.7-3.5,8.7-8.1,12.2-12.2c8.7-10.5,11.6-18,11.6-22.1c0-2.3,2.3-4.7,4.7-4.7l0,0
		c2.3,0,4.7,2.3,4.7,4.7c0,7-5.2,17.4-14,27.9c-4.1,4.7-8.7,9.3-13.4,13.4c-4.1,3.5-8.7,7-13.4,9.3c-4.7,2.9-9.3,4.7-14,6.4
		c-4.7,1.7-9.3,2.9-14,2.9c-1.7,0-11,0-14-0.6c-4.7-0.6-9.3-1.7-14-4.1c-5.8-2.3-10.5-5.2-13.4-8.1c-1.7-1.2-3.5-2.3-4.7-3.5
		c-2.9-2.3-5.2-4.1-8.1-5.8c-4.1-2.3-7.6-4.1-11-4.7c-1.7,0-8.7,0-10.5,1.2c-3.5,1.7-7.6,4.1-11,7.6c-4.1,3.5-8.1,8.7-12.2,14.5
		c-1.7,4.7-5.8,11-11.6,20.9C64,191.9,62.2,192.4,60.5,192.4z M111,145.9L111,145.9L111,145.9z"/>
</g>
</svg>
