<?xml version="1.0" encoding="utf-8"?>
<!-- Generator: Adobe Illustrator 21.0.0, SVG Export Plug-In . SVG Version: 6.00 Build 0)  -->
<svg version="1.1" id="Calque_1" xmlns="http://www.w3.org/2000/svg" xmlns:xlink="http://www.w3.org/1999/xlink" x="0px" y="0px"
	 viewBox="0 0 518 100" style="enable-background:new 0 0 518 100;" xml:space="preserve">
<style type="text/css">
	.st0{fill:url(#SVGID_1_);}
	.st1{fill:#FFFFFF;}
	.st2{fill:#060C26;}
</style>
<g>
	<g>
		
			<linearGradient id="SVGID_1_" gradientUnits="userSpaceOnUse" x1="204" y1="253.9611" x2="304" y2="253.9611" gradientTransform="matrix(0 1 -1 0 304 -204)">
			<stop  offset="0" style="stop-color:#08AEEA"/>
			<stop  offset="3.679174e-02" style="stop-color:#0AB1E6"/>
			<stop  offset="0.4648" style="stop-color:#1BD6BC"/>
			<stop  offset="0.8004" style="stop-color:#26EDA2"/>
			<stop  offset="1" style="stop-color:#2AF598"/>
		</linearGradient>
		<circle class="st0" cx="50" cy="50" r="50"/>
	</g>
	<path class="st1" d="M20.2,64.3c-0.3,0-0.5-0.1-0.7-0.2c-0.7-0.4-1-1.3-0.6-2c1.9-3.4,3.3-5.7,4.3-7c1.5-2.2,3-4,4.5-5.3
		c1.6-1.5,3.2-2.6,4.7-3.2c1.4-0.6,4.5-0.7,5.1-0.6c1.6,0.3,3.2,0.9,4.8,1.9c1,0.6,1.9,1.3,2.9,2c0.5,0.4,1,0.8,1.5,1.1
		c1,0.7,2.3,1.6,3.9,2.3c1.2,0.5,2.5,0.9,3.9,1.1c0.8,0.1,3.5,0.2,3.9,0.1c1.2-0.1,2.6-0.4,3.9-0.9c1.3-0.5,2.7-1.1,4.1-1.9
		c1.4-0.8,2.7-1.8,4-2.9c1.5-1.3,2.9-2.6,4.1-4.1c2.9-3.5,3.9-6.1,3.9-7.3c0-0.8,0.7-1.5,1.5-1.5c0,0,0,0,0,0c0.8,0,1.5,0.7,1.5,1.5
		c0,2.4-1.7,5.7-4.6,9.2c-1.3,1.6-2.8,3.1-4.5,4.5c-1.4,1.2-2.9,2.3-4.5,3.2c-1.5,0.9-3.1,1.6-4.6,2.2c-1.6,0.5-3.1,0.9-4.6,1
		c-0.6,0.1-3.6,0-4.6-0.2c-1.6-0.2-3.1-0.7-4.6-1.3c-1.9-0.8-3.4-1.8-4.5-2.6c-0.5-0.4-1.1-0.8-1.6-1.2c-0.9-0.7-1.8-1.3-2.6-1.9
		c-1.3-0.8-2.4-1.3-3.6-1.5c-0.6,0-2.8,0.1-3.5,0.4c-1.2,0.5-2.5,1.4-3.8,2.6c-1.3,1.3-2.7,2.9-4.1,4.9c-0.9,1.3-2.3,3.6-4.1,6.8
		C21.2,64,20.7,64.3,20.2,64.3z M37,48.8C37,48.8,37,48.8,37,48.8C37,48.8,37,48.8,37,48.8z"/>
	<g>
		<path class="st2" d="M138.4,68.5c-10.9,0-19.4-7.5-19.4-20.8c0-13.4,8.4-20.8,19.4-20.8c10.9,0,19.4,7.4,19.4,20.8
			S149.3,68.5,138.4,68.5z M138.4,35.4c-5.8,0-9.4,4.3-9.4,12.2s3.5,12.2,9.4,12.2c5.9,0,9.4-4.3,9.4-12.2S144.3,35.4,138.4,35.4z"
			/>
		<path class="st2" d="M163.5,37.5h9.6v5.2h0.3c1.2-2.8,3.8-5.6,8.6-5.6c6.4,0,12.1,4.9,12.1,15.6c0,10.4-5.4,15.6-12.2,15.6
			c-4.6,0-7.3-2.6-8.6-5.4h-0.2v16.3h-9.7V37.5z M178.6,60.8c3.6,0,5.6-3.2,5.6-8.1c0-4.9-2-8-5.6-8c-3.5,0-5.6,3.1-5.6,8
			C173,57.6,175,60.8,178.6,60.8z"/>
		<path class="st2" d="M198,52.8c0-9.4,5.9-15.7,15.1-15.7c8.6,0,14.7,5.5,14.7,15.5V55h-20.3v0.3c0,3.7,2.3,6.2,6,6.2
			c2.5,0,4.5-1.1,5.3-3.1l8.9,0.3c-1.1,6-6.4,9.8-14.3,9.8C203.8,68.5,198,62.6,198,52.8z M218.8,49.4c0-3.1-2.3-5.3-5.5-5.3
			c-3.2,0-5.6,2.3-5.7,5.3H218.8z"/>
		<path class="st2" d="M242.5,67.9h-9.7V37.5h9.2v5.6h0.3c1.3-3.7,4.8-6,9.3-6c6.4,0,10.6,4.6,10.6,11.4v19.4h-9.7V50.4
			c0-3.4-1.8-5.4-4.9-5.4c-3.1,0-5.1,2.1-5.1,5.5V67.9z"/>
		<path class="st2" d="M268.2,27.3h27.7v8H278v8.3h16.1v8H278v16.3h-9.8V27.3z"/>
		<path class="st2" d="M297.4,52.8c0-9.4,5.8-15.7,15.4-15.7c9.6,0,15.4,6.3,15.4,15.7c0,9.4-5.8,15.7-15.4,15.7
			C303.2,68.5,297.4,62.2,297.4,52.8z M318.3,52.7c0-5.1-2-8.5-5.4-8.5c-3.6,0-5.6,3.4-5.6,8.5c0,5,2,8.4,5.6,8.4
			C316.3,61.2,318.3,57.8,318.3,52.7z"/>
		<path class="st2" d="M332,52.8c0-9.4,5.8-15.7,15.4-15.7c9.6,0,15.4,6.3,15.4,15.7c0,9.4-5.8,15.7-15.4,15.7
			C337.8,68.5,332,62.2,332,52.8z M352.9,52.7c0-5.1-2-8.5-5.4-8.5c-3.6,0-5.6,3.4-5.6,8.5c0,5,2,8.4,5.6,8.4
			C350.9,61.2,352.9,57.8,352.9,52.7z"/>
		<path class="st2" d="M384.9,44.6h-5.5v13.7c0,1.8,0.9,2.4,2.5,2.4c0.7,0,1.7-0.2,2.1-0.3l1.5,7c-0.9,0.3-2.6,0.8-5,0.9
			c-6.8,0.3-10.8-2.8-10.8-8.9V44.6h-4v-7.1h4v-7.3h9.7v7.3h5.5V44.6z"/>
		<path class="st2" d="M389.8,37.5h9.6v5.2h0.3c1.2-2.8,3.8-5.6,8.6-5.6c6.4,0,12.1,4.9,12.1,15.6c0,10.4-5.4,15.6-12.2,15.6
			c-4.6,0-7.3-2.6-8.6-5.4h-0.2v16.3h-9.7V37.5z M404.9,60.8c3.6,0,5.6-3.2,5.6-8.1c0-4.9-2-8-5.6-8c-3.5,0-5.6,3.1-5.6,8
			C399.3,57.6,401.4,60.8,404.9,60.8z"/>
		<path class="st2" d="M425.5,37.5h9.4V43h0.3c1.1-4,3.8-6,7.1-6c0.9,0,1.9,0.1,2.7,0.4v8.4c-0.9-0.3-2.7-0.5-3.8-0.5
			c-3.5,0-6,2.4-6,6.1v16.5h-9.7V37.5z"/>
		<path class="st2" d="M448.9,29.3c0-2.6,2.2-4.6,5-4.6c2.8,0,5,2.1,5,4.6s-2.2,4.6-5,4.6C451.1,33.9,448.9,31.9,448.9,29.3z
			 M449,37.5h9.7v30.4H449V37.5z"/>
		<path class="st2" d="M474.5,67.9h-9.7V37.5h9.2v5.6h0.3c1.3-3.7,4.8-6,9.3-6c6.4,0,10.6,4.6,10.6,11.4v19.4h-9.7V50.4
			c0-3.4-1.8-5.4-4.9-5.4c-3.1,0-5.1,2.1-5.1,5.5V67.9z"/>
		<path class="st2" d="M517.4,44.6h-5.5v13.7c0,1.8,0.9,2.4,2.5,2.4c0.7,0,1.7-0.2,2.1-0.3l1.5,7c-0.9,0.3-2.6,0.8-5,0.9
			c-6.8,0.3-10.8-2.8-10.8-8.9V44.6h-4v-7.1h4v-7.3h9.7v7.3h5.5V44.6z"/>
	</g>
</g>
</svg>
